P3
# CREATOR: GIMP PNM Filter Version 1.1
50 50
255
255
255
255
125
65
35
125
65
35
125
65
35
125
65
35
125
65
35
125
65
35
125
65
35
125
65
35
125
65
35
125
65
35
125
65
35
125
65
35
125
65
35
125
65
35
125
65
35
125
65
35
125
65
35
125
65
35
255
255
255
255
255
255
255
255
255
255
255
255
255
255
255
255
255
255
255
255
255
255
255
255
255
255
255
255
255
255
255
255
255
255
255
255
255
255
255
255
255
255
255
255
255
255
255
255
255
255
255
255
255
255
255
255
255
255
255
255
255
255
255
255
255
255
255
255
255
255
255
255
255
255
255
255
255
255
255
255
255
255
255
255
255
255
255
255
255
255
255
255
255
255
255
255
100
100
100
235
150
235
235
150
235
235
150
235
235
150
235
235
150
235
235
150
235
235
150
235
235
150
235
235
150
235
235
150
235
235
150
235
235
150
235
235
150
235
235
150
235
235
150
235
235
150
235
125
65
35
255
255
255
255
255
255
125
65
35
125
65
35
125
65
35
125
65
35
125
65
35
125
65
35
125
65
35
125
65
35
125
65
35
125
65
35
125
65
35
125
65
35
125
65
35
125
65
35
125
65
35
125
65
35
125
65
35
125
65
35
125
65
35
125
65
35
125
65
35
125
65
35
125
65
35
125
65
35
125
65
35
125
65
35
125
65
35
125
65
35
255
255
255
255
255
255
125
65
35
235
150
235
235
150
235
235
150
235
235
150
235
235
150
235
235
150
235
235
150
235
235
150
235
235
150
235
235
150
235
235
150
235
235
150
235
235
150
235
235
150
235
235
150
235
235
150
235
125
65
35
255
255
255
255
255
255
125
65
35
235
150
235
235
150
235
235
150
235
235
150
235
235
150
235
235
150
235
235
150
235
235
150
235
235
150
235
235
150
235
235
150
235
95
95
225
235
150
235
235
150
235
235
150
235
235
150
235
235
150
235
235
150
235
235
150
235
235
150
235
235
150
235
235
150
235
235
150
235
235
150
235
235
150
235
235
150
235
125
65
35
255
255
255
255
255
255
125
65
35
125
65
35
125
65
35
125
65
35
125
65
35
125
65
35
125
65
35
125
65
35
125
65
35
125
65
35
125
65
35
125
65
35
125
65
35
125
65
35
125
65
35
235
150
235
235
150
235
125
65
35
255
255
255
255
255
255
125
65
35
235
150
235
235
150
235
235
150
235
235
150
235
235
150
235
235
150
235
235
150
235
235
150
235
235
150
235
235
150
235
235
150
235
235
150
235
235
150
235
235
150
235
235
150
235
235
150
235
235
150
235
235
150
235
235
150
235
235
150
235
235
150
235
235
150
235
235
150
235
235
150
235
235
150
235
235
150
235
125
65
35
255
255
255
255
255
255
255
255
255
255
255
255
255
255
255
255
255
255
255
255
255
255
255
255
255
255
255
255
255
255
255
255
255
255
255
255
255
255
255
255
255
255
255
255
255
255
255
255
125
65
35
235
150
235
235
150
235
125
65
35
255
255
255
255
255
255
125
65
35
235
150
235
125
65
35
125
65
35
125
65
35
125
65
35
125
65
35
125
65
35
125
65
35
125
65
35
125
65
35
125
65
35
125
65
35
125
65
35
125
65
35
125
65
35
125
65
35
125
65
35
125
65
35
125
65
35
125
65
35
125
65
35
125
65
35
125
65
35
125
65
35
235
150
235
235
150
235
125
65
35
255
255
255
255
255
255
255
255
255
255
255
255
255
255
255
255
255
255
255
255
255
255
255
255
255
255
255
255
255
255
255
255
255
255
255
255
255
255
255
255
255
255
255
255
255
255
255
255
125
65
35
235
150
235
235
150
235
125
65
35
255
255
255
255
255
255
125
65
35
235
150
235
125
65
35
255
255
255
255
255
255
255
255
255
255
255
255
255
255
255
255
255
255
255
255
255
255
255
255
255
255
255
255
255
255
255
255
255
255
255
255
255
255
255
255
255
255
255
255
255
255
255
255
255
255
255
255
255
255
255
255
255
255
255
255
255
255
255
125
65
35
235
150
235
235
150
235
125
65
35
255
255
255
255
255
255
255
255
255
255
255
255
255
255
255
255
255
255
255
255
255
255
255
255
255
255
255
255
255
255
255
255
255
255
255
255
255
255
255
255
255
255
255
255
255
255
255
255
125
65
35
235
150
235
235
150
235
125
65
35
255
255
255
255
255
255
125
65
35
235
150
235
125
65
35
255
255
255
255
255
255
255
255
255
255
255
255
255
255
255
255
255
255
255
255
255
255
255
255
255
255
255
255
255
255
255
255
255
255
255
255
255
255
255
255
255
255
255
255
255
255
255
255
255
255
255
255
255
255
255
255
255
255
255
255
255
255
255
125
65
35
235
150
235
235
150
235
125
65
35
255
255
255
255
255
255
255
255
255
255
255
255
255
255
255
255
255
255
255
255
255
255
255
255
255
255
255
255
255
255
255
255
255
255
255
255
255
255
255
255
255
255
255
255
255
255
255
255
125
65
35
235
150
235
235
150
235
125
65
35
255
255
255
255
255
255
125
65
35
235
150
235
125
65
35
255
255
255
255
255
255
255
255
255
255
255
255
255
255
255
255
255
255
255
255
255
255
255
255
255
255
255
255
255
255
255
255
255
255
255
255
255
255
255
255
255
255
255
255
255
255
255
255
255
255
255
255
255
255
255
255
255
255
255
255
255
255
255
125
65
35
235
150
235
235
150
235
125
65
35
255
255
255
255
255
255
255
255
255
255
255
255
255
255
255
255
255
255
255
255
255
255
255
255
255
255
255
255
255
255
255
255
255
255
255
255
255
255
255
255
255
255
255
255
255
255
255
255
125
65
35
235
150
235
235
150
235
125
65
35
255
255
255
125
65
35
125
65
35
235
150
235
125
65
35
255
255
255
255
255
255
255
255
255
255
255
255
255
255
255
255
255
255
255
255
255
255
255
255
255
255
255
255
255
255
255
255
255
255
255
255
255
255
255
255
255
255
255
255
255
255
255
255
255
255
255
255
255
255
255
255
255
255
255
255
255
255
255
125
65
35
235
150
235
235
150
235
125
65
35
255
255
255
255
255
255
255
255
255
255
255
255
255
255
255
255
255
255
255
255
255
255
255
255
255
255
255
255
255
255
255
255
255
255
255
255
255
255
255
255
255
255
255
255
255
255
255
255
125
65
35
235
150
235
235
150
235
125
65
35
255
255
255
125
65
35
235
150
235
235
150
235
125
65
35
255
255
255
255
255
255
255
255
255
255
255
255
255
255
255
255
255
255
255
255
255
255
255
255
255
255
255
255
255
255
255
255
255
255
255
255
255
255
255
255
255
255
255
255
255
255
255
255
255
255
255
255
255
255
255
255
255
255
255
255
255
255
255
125
65
35
235
150
235
235
150
235
125
65
35
255
255
255
255
255
255
255
255
255
255
255
255
255
255
255
255
255
255
255
255
255
255
255
255
255
255
255
255
255
255
255
255
255
255
255
255
255
255
255
255
255
255
255
255
255
255
255
255
125
65
35
235
150
235
235
150
235
125
65
35
255
255
255
125
65
35
235
150
235
235
150
235
125
65
35
255
255
255
255
255
255
255
255
255
255
255
255
255
255
255
255
255
255
255
255
255
255
255
255
255
255
255
255
255
255
255
255
255
255
255
255
255
255
255
255
255
255
255
255
255
255
255
255
255
255
255
255
255
255
255
255
255
255
255
255
255
255
255
125
65
35
235
150
235
235
150
235
125
65
35
255
255
255
255
255
255
255
255
255
255
255
255
255
255
255
255
255
255
235
150
235
235
150
235
235
150
235
235
150
235
235
150
235
235
150
235
235
150
235
235
150
235
235
150
235
235
150
235
235
150
235
235
150
235
235
150
235
125
65
35
255
255
255
125
65
35
235
150
235
235
150
235
125
65
35
255
255
255
255
255
255
255
255
255
125
65
35
125
65
35
125
65
35
125
65
35
125
65
35
125
65
35
125
65
35
125
65
35
125
65
35
125
65
35
125
65
35
125
65
35
125
65
35
125
65
35
125
65
35
125
65
35
125
65
35
125
65
35
125
65
35
235
150
235
235
150
235
125
65
35
255
255
255
255
255
255
255
255
255
255
255
255
255
255
255
255
255
255
235
150
235
235
150
235
235
150
235
235
150
235
235
150
235
235
150
235
235
150
235
235
150
235
235
150
235
235
150
235
235
150
235
235
150
235
235
150
235
125
65
35
255
255
255
125
65
35
235
150
235
235
150
235
125
65
35
255
255
255
255
255
255
255
255
255
125
65
35
235
150
235
235
150
235
235
150
235
235
150
235
235
150
235
235
150
235
235
150
235
235
150
235
235
150
235
95
95
225
235
150
235
235
150
235
235
150
235
235
150
235
235
150
235
235
150
235
235
150
235
235
150
235
235
150
235
235
150
235
125
65
35
255
255
255
255
255
255
255
255
255
255
255
255
255
255
255
255
255
255
235
150
235
235
150
235
255
255
255
255
255
255
255
255
255
255
255
255
255
255
255
255
255
255
255
255
255
255
255
255
255
255
255
125
65
35
125
65
35
125
65
35
255
255
255
125
65
35
235
150
235
235
150
235
125
65
35
255
255
255
255
255
255
255
255
255
125
65
35
235
150
235
235
150
235
235
150
235
235
150
235
235
150
235
235
150
235
235
150
235
235
150
235
235
150
235
95
95
225
235
150
235
235
150
235
235
150
235
235
150
235
235
150
235
235
150
235
235
150
235
235
150
235
235
150
235
235
150
235
125
65
35
255
255
255
255
255
255
255
255
255
255
255
255
255
255
255
255
255
255
235
150
235
235
150
235
235
150
235
255
255
255
255
255
255
255
255
255
255
255
255
255
255
255
255
255
255
255
255
255
255
255
255
255
255
255
255
255
255
255
255
255
255
255
255
125
65
35
235
150
235
235
150
235
125
65
35
255
255
255
255
255
255
255
255
255
125
65
35
235
150
235
235
150
235
125
65
35
125
65
35
125
65
35
125
65
35
125
65
35
125
65
35
125
65
35
125
65
35
125
65
35
125
65
35
125
65
35
125
65
35
125
65
35
125
65
35
125
65
35
125
65
35
125
65
35
125
65
35
125
65
35
255
255
255
255
255
255
255
255
255
255
255
255
255
255
255
255
255
255
235
150
235
235
150
235
235
150
235
235
150
235
235
150
235
235
150
235
235
150
235
235
150
235
235
150
235
235
150
235
235
150
235
235
150
235
235
150
235
235
150
235
235
150
235
235
150
235
235
150
235
235
150
235
125
65
35
255
255
255
255
255
255
255
255
255
125
65
35
235
150
235
235
150
235
125
65
35
255
255
255
255
255
255
255
255
255
255
255
255
255
255
255
255
255
255
255
255
255
255
255
255
255
255
255
255
255
255
255
255
255
255
255
255
255
255
255
255
255
255
255
255
255
255
255
255
255
255
255
255
255
255
255
255
255
255
255
255
255
255
255
255
255
255
255
255
255
255
255
255
255
255
255
255
255
255
235
150
235
235
150
235
235
150
235
235
150
235
235
150
235
235
150
235
235
150
235
235
150
235
235
150
235
235
150
235
235
150
235
235
150
235
235
150
235
235
150
235
235
150
235
235
150
235
125
65
35
255
255
255
255
255
255
255
255
255
125
65
35
235
150
235
235
150
235
125
65
35
255
255
255
255
255
255
255
255
255
255
255
255
255
255
255
255
255
255
255
255
255
255
255
255
255
255
255
255
255
255
255
255
255
255
255
255
255
255
255
255
255
255
255
255
255
255
255
255
255
255
255
255
255
255
255
255
255
255
255
255
255
255
255
255
255
255
255
255
255
255
255
255
255
255
255
255
255
255
255
255
255
255
255
255
255
255
255
255
255
255
255
255
255
255
255
255
255
255
255
255
255
255
255
255
255
255
255
255
255
255
255
255
255
255
255
255
255
125
65
35
125
65
35
125
65
35
125
65
35
255
255
255
255
255
255
255
255
255
125
65
35
235
150
235
235
150
235
125
65
35
255
255
255
255
255
255
255
255
255
255
255
255
255
255
255
255
255
255
255
255
255
255
255
255
255
255
255
255
255
255
255
255
255
255
255
255
255
255
255
255
255
255
255
255
255
255
255
255
255
255
255
255
255
255
255
255
255
255
255
255
255
255
255
255
255
255
255
255
255
255
255
255
255
255
255
255
255
255
255
255
255
255
255
255
255
255
255
255
255
255
255
255
255
255
255
255
255
255
255
255
255
255
255
255
255
255
255
255
255
255
255
255
255
255
255
255
255
255
255
255
255
255
255
255
255
255
255
255
255
255
255
255
255
255
255
255
255
255
125
65
35
235
150
235
235
150
235
125
65
35
255
255
255
255
255
255
255
255
255
255
255
255
235
150
235
235
150
235
235
150
235
235
150
235
235
150
235
95
95
225
235
150
235
235
150
235
235
150
235
235
150
235
235
150
235
235
150
235
255
255
255
255
255
255
255
255
255
255
255
255
255
255
255
255
255
255
255
255
255
255
255
255
255
255
255
255
255
255
255
255
255
255
255
255
255
255
255
255
255
255
255
255
255
255
255
255
255
255
255
255
255
255
255
255
255
255
255
255
255
255
255
255
255
255
255
255
255
255
255
255
255
255
255
255
255
255
255
255
255
255
255
255
255
255
255
255
255
255
125
65
35
235
150
235
235
150
235
125
65
35
255
255
255
255
255
255
255
255
255
255
255
255
235
150
235
235
150
235
235
150
235
235
150
235
235
150
235
95
95
225
255
255
255
255
255
255
235
150
235
235
150
235
235
150
235
235
150
235
235
150
235
255
255
255
255
255
255
255
255
255
255
255
255
255
255
255
235
150
235
235
150
235
235
150
235
235
150
235
235
150
235
235
150
235
235
150
235
235
150
235
235
150
235
255
255
255
255
255
255
255
255
255
255
255
255
255
255
255
255
255
255
255
255
255
255
255
255
255
255
255
255
255
255
255
255
255
255
255
255
255
255
255
255
255
255
255
255
255
125
65
35
35
185
70
35
185
70
125
65
35
255
255
255
255
255
255
255
255
255
255
255
255
255
255
255
235
150
235
255
255
255
255
255
255
255
255
255
255
255
255
255
255
255
255
255
255
255
255
255
255
255
255
255
255
255
235
150
235
235
150
235
255
255
255
255
255
255
255
255
255
255
255
255
255
255
255
235
150
235
235
150
235
235
150
235
235
150
235
235
150
235
235
150
235
235
150
235
235
150
235
235
150
235
235
150
235
255
255
255
255
255
255
255
255
255
255
255
255
255
255
255
255
255
255
255
255
255
255
255
255
255
255
255
255
255
255
255
255
255
255
255
255
255
255
255
255
255
255
125
65
35
235
150
235
235
150
235
125
65
35
255
255
255
255
255
255
255
255
255
255
255
255
235
150
235
35
185
70
255
255
255
255
255
255
255
255
255
255
255
255
255
255
255
255
255
255
255
255
255
255
255
255
255
255
255
235
150
235
235
150
235
235
150
235
255
255
255
255
255
255
255
255
255
255
255
255
235
150
235
235
150
235
255
255
255
255
255
255
255
255
255
255
255
255
255
255
255
255
255
255
235
150
235
235
150
235
255
255
255
255
255
255
255
255
255
255
255
255
255
255
255
255
255
255
255
255
255
255
255
255
255
255
255
255
255
255
255
255
255
255
255
255
255
255
255
255
255
255
125
65
35
235
150
235
235
150
235
125
65
35
255
255
255
255
255
255
255
255
255
255
255
255
235
150
235
235
150
235
255
255
255
255
255
255
255
255
255
255
255
255
255
255
255
255
255
255
255
255
255
255
255
255
255
255
255
235
150
235
235
150
235
235
150
235
255
255
255
255
255
255
255
255
255
255
255
255
235
150
235
235
150
235
255
255
255
255
255
255
255
255
255
255
255
255
255
255
255
255
255
255
235
150
235
235
150
235
255
255
255
255
255
255
255
255
255
255
255
255
255
255
255
255
255
255
255
255
255
255
255
255
255
255
255
255
255
255
255
255
255
255
255
255
255
255
255
255
255
255
125
65
35
235
150
235
235
150
235
125
65
35
255
255
255
255
255
255
255
255
255
255
255
255
235
150
235
235
150
235
255
255
255
255
255
255
255
255
255
255
255
255
255
255
255
255
255
255
255
255
255
255
255
255
255
255
255
255
255
255
95
95
225
95
95
225
255
255
255
255
255
255
255
255
255
255
255
255
235
150
235
235
150
235
255
255
255
255
255
255
255
255
255
255
255
255
255
255
255
255
255
255
235
150
235
235
150
235
255
255
255
255
255
255
255
255
255
255
255
255
255
255
255
255
255
255
255
255
255
255
255
255
255
255
255
255
255
255
255
255
255
255
255
255
255
255
255
255
255
255
125
65
35
235
150
235
235
150
235
125
65
35
255
255
255
255
255
255
255
255
255
255
255
255
235
150
235
235
150
235
255
255
255
255
255
255
255
255
255
255
255
255
255
255
255
255
255
255
255
255
255
255
255
255
255
255
255
255
255
255
235
150
235
235
150
235
255
255
255
255
255
255
255
255
255
255
255
255
235
150
235
235
150
235
255
255
255
255
255
255
255
255
255
255
255
255
255
255
255
255
255
255
235
150
235
235
150
235
255
255
255
255
255
255
255
255
255
255
255
255
255
255
255
255
255
255
255
255
255
255
255
255
255
255
255
255
255
255
255
255
255
255
255
255
255
255
255
255
255
255
125
65
35
235
150
235
235
150
235
125
65
35
255
255
255
255
255
255
255
255
255
255
255
255
235
150
235
255
255
255
255
255
255
255
255
255
255
255
255
255
255
255
255
255
255
255
255
255
255
255
255
255
255
255
255
255
255
125
65
35
235
150
235
235
150
235
125
65
35
255
255
255
255
255
255
255
255
255
235
150
235
235
150
235
255
255
255
255
255
255
255
255
255
255
255
255
255
255
255
255
255
255
235
150
235
235
150
235
255
255
255
255
255
255
255
255
255
255
255
255
255
255
255
255
255
255
255
255
255
255
255
255
255
255
255
255
255
255
255
255
255
255
255
255
255
255
255
255
255
255
125
65
35
235
150
235
235
150
235
125
65
35
255
255
255
255
255
255
255
255
255
255
255
255
235
150
235
235
150
235
255
255
255
255
255
255
255
255
255
255
255
255
255
255
255
255
255
255
255
255
255
255
255
255
255
255
255
125
65
35
255
255
255
235
150
235
125
65
35
255
255
255
255
255
255
255
255
255
95
95
225
255
255
255
255
255
255
255
255
255
255
255
255
255
255
255
255
255
255
255
255
255
235
150
235
235
150
235
255
255
255
255
255
255
255
255
255
255
255
255
255
255
255
255
255
255
255
255
255
255
255
255
255
255
255
255
255
255
255
255
255
255
255
255
255
255
255
255
255
255
125
65
35
235
150
235
235
150
235
125
65
35
255
255
255
255
255
255
255
255
255
255
255
255
35
185
70
35
185
70
255
255
255
255
255
255
255
255
255
255
255
255
255
255
255
255
255
255
255
255
255
255
255
255
255
255
255
125
65
35
235
150
235
235
150
235
125
65
35
255
255
255
255
255
255
255
255
255
235
150
235
235
150
235
255
255
255
255
255
255
255
255
255
255
255
255
255
255
255
255
255
255
235
150
235
235
150
235
255
255
255
255
255
255
255
255
255
255
255
255
255
255
255
255
255
255
255
255
255
255
255
255
255
255
255
255
255
255
255
255
255
255
255
255
255
255
255
255
255
255
125
65
35
95
95
225
95
95
225
125
65
35
255
255
255
255
255
255
255
255
255
255
255
255
255
255
255
235
150
235
255
255
255
255
255
255
255
255
255
255
255
255
255
255
255
255
255
255
255
255
255
255
255
255
255
255
255
125
65
35
235
150
235
235
150
235
125
65
35
255
255
255
255
255
255
255
255
255
255
255
255
95
95
225
255
255
255
255
255
255
255
255
255
255
255
255
255
255
255
255
255
255
235
150
235
235
150
235
255
255
255
255
255
255
255
255
255
255
255
255
255
255
255
255
255
255
255
255
255
255
255
255
255
255
255
255
255
255
255
255
255
255
255
255
255
255
255
255
255
255
125
65
35
235
150
235
235
150
235
125
65
35
255
255
255
255
255
255
255
255
255
255
255
255
235
150
235
235
150
235
255
255
255
255
255
255
255
255
255
255
255
255
255
255
255
255
255
255
255
255
255
255
255
255
255
255
255
125
65
35
235
150
235
235
150
235
125
65
35
255
255
255
255
255
255
255
255
255
235
150
235
235
150
235
255
255
255
255
255
255
255
255
255
255
255
255
255
255
255
255
255
255
235
150
235
235
150
235
255
255
255
255
255
255
255
255
255
255
255
255
255
255
255
255
255
255
255
255
255
255
255
255
255
255
255
255
255
255
255
255
255
255
255
255
255
255
255
255
255
255
125
65
35
235
150
235
235
150
235
125
65
35
255
255
255
255
255
255
255
255
255
255
255
255
235
150
235
235
150
235
255
255
255
255
255
255
255
255
255
255
255
255
255
255
255
255
255
255
255
255
255
255
255
255
255
255
255
125
65
35
35
185
70
35
185
70
125
65
35
255
255
255
255
255
255
255
255
255
235
150
235
235
150
235
255
255
255
255
255
255
255
255
255
255
255
255
255
255
255
255
255
255
235
150
235
235
150
235
255
255
255
255
255
255
255
255
255
255
255
255
255
255
255
255
255
255
255
255
255
255
255
255
255
255
255
255
255
255
255
255
255
255
255
255
255
255
255
255
255
255
125
65
35
235
150
235
235
150
235
125
65
35
255
255
255
255
255
255
255
255
255
235
150
235
235
150
235
235
150
235
255
255
255
255
255
255
255
255
255
255
255
255
255
255
255
255
255
255
255
255
255
255
255
255
125
65
35
125
65
35
235
150
235
235
150
235
125
65
35
255
255
255
255
255
255
255
255
255
235
150
235
235
150
235
255
255
255
255
255
255
255
255
255
255
255
255
255
255
255
255
255
255
35
185
70
95
95
225
255
255
255
255
255
255
255
255
255
255
255
255
255
255
255
255
255
255
255
255
255
255
255
255
255
255
255
255
255
255
255
255
255
255
255
255
255
255
255
255
255
255
125
65
35
235
150
235
235
150
235
125
65
35
255
255
255
255
255
255
255
255
255
235
150
235
235
150
235
255
255
255
255
255
255
255
255
255
255
255
255
255
255
255
255
255
255
255
255
255
255
255
255
255
255
255
125
65
35
235
150
235
235
150
235
235
150
235
125
65
35
255
255
255
255
255
255
255
255
255
235
150
235
235
150
235
255
255
255
255
255
255
255
255
255
255
255
255
255
255
255
255
255
255
235
150
235
235
150
235
255
255
255
255
255
255
255
255
255
255
255
255
255
255
255
255
255
255
255
255
255
255
255
255
255
255
255
255
255
255
255
255
255
255
255
255
255
255
255
255
255
255
125
65
35
235
150
235
235
150
235
125
65
35
255
255
255
255
255
255
255
255
255
235
150
235
235
150
235
255
255
255
255
255
255
255
255
255
255
255
255
255
255
255
255
255
255
255
255
255
255
255
255
255
255
255
125
65
35
235
150
235
235
150
235
125
65
35
125
65
35
255
255
255
255
255
255
255
255
255
95
95
225
255
255
255
255
255
255
255
255
255
255
255
255
255
255
255
255
255
255
255
255
255
235
150
235
235
150
235
255
255
255
255
255
255
255
255
255
255
255
255
255
255
255
255
255
255
255
255
255
255
255
255
255
255
255
255
255
255
255
255
255
255
255
255
255
255
255
255
255
255
125
65
35
35
185
70
35
185
70
125
65
35
255
255
255
255
255
255
255
255
255
235
150
235
235
150
235
255
255
255
255
255
255
255
255
255
255
255
255
255
255
255
255
255
255
255
255
255
255
255
255
255
255
255
125
65
35
255
255
255
255
255
255
125
65
35
255
255
255
255
255
255
255
255
255
255
255
255
235
150
235
235
150
235
255
255
255
255
255
255
255
255
255
255
255
255
255
255
255
255
255
255
235
150
235
235
150
235
255
255
255
255
255
255
255
255
255
255
255
255
255
255
255
255
255
255
255
255
255
255
255
255
255
255
255
255
255
255
255
255
255
255
255
255
255
255
255
255
255
255
125
65
35
235
150
235
235
150
235
125
65
35
255
255
255
255
255
255
255
255
255
235
150
235
235
150
235
255
255
255
255
255
255
255
255
255
255
255
255
255
255
255
255
255
255
255
255
255
255
255
255
255
255
255
125
65
35
235
150
235
255
255
255
125
65
35
255
255
255
255
255
255
255
255
255
255
255
255
235
150
235
235
150
235
255
255
255
255
255
255
255
255
255
255
255
255
255
255
255
255
255
255
235
150
235
235
150
235
255
255
255
255
255
255
255
255
255
255
255
255
255
255
255
255
255
255
255
255
255
255
255
255
255
255
255
255
255
255
255
255
255
255
255
255
255
255
255
255
255
255
125
65
35
235
150
235
235
150
235
125
65
35
255
255
255
255
255
255
255
255
255
235
150
235
235
150
235
255
255
255
255
255
255
255
255
255
255
255
255
255
255
255
255
255
255
255
255
255
255
255
255
255
255
255
125
65
35
235
150
235
235
150
235
125
65
35
125
65
35
255
255
255
255
255
255
255
255
255
235
150
235
235
150
235
255
255
255
255
255
255
255
255
255
255
255
255
255
255
255
255
255
255
235
150
235
235
150
235
255
255
255
255
255
255
255
255
255
255
255
255
125
65
35
125
65
35
125
65
35
125
65
35
125
65
35
125
65
35
125
65
35
125
65
35
125
65
35
125
65
35
125
65
35
235
150
235
235
150
235
125
65
35
255
255
255
255
255
255
255
255
255
235
150
235
235
150
235
255
255
255
255
255
255
255
255
255
255
255
255
255
255
255
255
255
255
255
255
255
255
255
255
255
255
255
125
65
35
235
150
235
235
150
235
235
150
235
125
65
35
255
255
255
255
255
255
255
255
255
235
150
235
235
150
235
255
255
255
255
255
255
255
255
255
255
255
255
255
255
255
255
255
255
235
150
235
235
150
235
235
150
235
235
150
235
235
150
235
35
185
70
235
150
235
235
150
235
235
150
235
235
150
235
235
150
235
235
150
235
235
150
235
235
150
235
235
150
235
235
150
235
235
150
235
235
150
235
235
150
235
125
65
35
255
255
255
255
255
255
255
255
255
95
95
225
35
185
70
255
255
255
255
255
255
255
255
255
255
255
255
255
255
255
255
255
255
255
255
255
255
255
255
255
255
255
125
65
35
125
65
35
235
150
235
235
150
235
125
65
35
255
255
255
255
255
255
255
255
255
235
150
235
235
150
235
255
255
255
255
255
255
255
255
255
255
255
255
255
255
255
255
255
255
235
150
235
235
150
235
235
150
235
235
150
235
235
150
235
35
185
70
235
150
235
235
150
235
235
150
235
235
150
235
235
150
235
255
255
255
235
150
235
235
150
235
235
150
235
235
150
235
235
150
235
235
150
235
235
150
235
125
65
35
255
255
255
255
255
255
255
255
255
235
150
235
235
150
235
255
255
255
255
255
255
255
255
255
255
255
255
255
255
255
255
255
255
255
255
255
255
255
255
255
255
255
255
255
255
125
65
35
235
150
235
235
150
235
125
65
35
255
255
255
255
255
255
255
255
255
235
150
235
235
150
235
255
255
255
255
255
255
255
255
255
255
255
255
255
255
255
255
255
255
255
255
255
255
255
255
255
255
255
255
255
255
255
255
255
255
255
255
125
65
35
125
65
35
125
65
35
125
65
35
125
65
35
125
65
35
125
65
35
125
65
35
125
65
35
125
65
35
125
65
35
125
65
35
125
65
35
125
65
35
255
255
255
255
255
255
255
255
255
235
150
235
235
150
235
255
255
255
255
255
255
255
255
255
255
255
255
255
255
255
255
255
255
255
255
255
255
255
255
255
255
255
255
255
255
125
65
35
35
185
70
35
185
70
125
65
35
255
255
255
255
255
255
255
255
255
235
150
235
235
150
235
255
255
255
255
255
255
255
255
255
255
255
255
255
255
255
255
255
255
255
255
255
255
255
255
255
255
255
255
255
255
255
255
255
255
255
255
255
255
255
255
255
255
255
255
255
255
255
255
255
255
255
255
255
255
255
255
255
255
255
255
255
255
255
255
255
255
255
255
255
255
255
255
255
255
255
255
255
255
255
255
255
255
255
255
255
255
255
235
150
235
255
255
255
255
255
255
255
255
255
255
255
255
255
255
255
255
255
255
255
255
255
255
255
255
255
255
255
255
255
255
255
255
255
125
65
35
235
150
235
235
150
235
125
65
35
255
255
255
255
255
255
255
255
255
35
185
70
35
185
70
255
255
255
255
255
255
255
255
255
255
255
255
255
255
255
255
255
255
255
255
255
255
255
255
255
255
255
255
255
255
255
255
255
255
255
255
255
255
255
255
255
255
255
255
255
255
255
255
255
255
255
255
255
255
255
255
255
255
255
255
255
255
255
255
255
255
255
255
255
255
255
255
255
255
255
255
255
255
255
255
255
255
255
255
255
255
255
255
255
255
255
255
255
255
255
255
255
255
255
255
255
255
255
255
255
255
255
255
255
255
255
255
255
255
255
255
255
255
255
255
255
255
255
125
65
35
235
150
235
235
150
235
125
65
35
255
255
255
255
255
255
255
255
255
235
150
235
235
150
235
255
255
255
255
255
255
255
255
255
255
255
255
255
255
255
255
255
255
255
255
255
255
255
255
255
255
255
255
255
255
255
255
255
255
255
255
255
255
255
255
255
255
255
255
255
255
255
255
255
255
255
255
255
255
255
255
255
255
255
255
255
255
255
255
255
255
255
255
255
255
255
255
255
255
255
255
255
255
255
255
255
255
255
255
255
255
255
235
150
235
235
150
235
255
255
255
255
255
255
255
255
255
255
255
255
255
255
255
255
255
255
255
255
255
255
255
255
255
255
255
255
255
255
125
65
35
235
150
235
235
150
235
125
65
35
255
255
255
255
255
255
255
255
255
235
150
235
235
150
235
255
255
255
255
255
255
255
255
255
255
255
255
255
255
255
255
255
255
255
255
255
255
255
255
255
255
255
255
255
255
255
255
255
255
255
255
255
255
255
255
255
255
255
255
255
255
255
255
255
255
255
255
255
255
255
255
255
255
255
255
255
255
255
255
255
255
255
255
255
255
255
255
255
255
255
255
255
255
255
255
255
255
255
255
255
255
255
235
150
235
235
150
235
255
255
255
255
255
255
255
255
255
255
255
255
255
255
255
255
255
255
255
255
255
255
255
255
255
255
255
255
255
255
125
65
35
235
150
235
235
150
235
125
65
35
255
255
255
255
255
255
255
255
255
95
95
225
95
95
225
255
255
255
255
255
255
255
255
255
255
255
255
255
255
255
255
255
255
255
255
255
255
255
255
255
255
255
255
255
255
255
255
255
255
255
255
255
255
255
255
255
255
255
255
255
255
255
255
255
255
255
255
255
255
255
255
255
255
255
255
255
255
255
255
255
255
255
255
255
255
255
255
255
255
255
255
255
255
255
255
255
255
255
255
255
255
255
235
150
235
235
150
235
255
255
255
255
255
255
255
255
255
255
255
255
255
255
255
255
255
255
255
255
255
255
255
255
255
255
255
255
255
255
125
65
35
235
150
235
235
150
235
125
65
35
255
255
255
255
255
255
255
255
255
235
150
235
235
150
235
255
255
255
255
255
255
255
255
255
255
255
255
255
255
255
255
255
255
255
255
255
255
255
255
255
255
255
255
255
255
255
255
255
255
255
255
255
255
255
255
255
255
255
255
255
255
255
255
255
255
255
255
255
255
255
255
255
255
255
255
255
255
255
255
255
255
255
255
255
255
255
255
255
255
255
255
255
255
255
255
255
255
255
255
255
255
255
235
150
235
235
150
235
255
255
255
255
255
255
255
255
255
255
255
255
255
255
255
255
255
255
255
255
255
255
255
255
255
255
255
255
255
255
125
65
35
235
150
235
235
150
235
125
65
35
255
255
255
255
255
255
255
255
255
235
150
235
235
150
235
235
150
235
95
95
225
235
150
235
235
150
235
35
185
70
235
150
235
95
95
225
235
150
235
235
150
235
235
150
235
35
185
70
235
150
235
235
150
235
95
95
225
235
150
235
235
150
235
35
185
70
235
150
235
235
150
235
235
150
235
235
150
235
35
185
70
235
150
235
235
150
235
235
150
235
235
150
235
235
150
235
95
95
225
235
150
235
235
150
235
235
150
235
255
255
255
255
255
255
255
255
255
255
255
255
255
255
255
255
255
255
255
255
255
255
255
255
255
255
255
255
255
255
125
65
35
235
150
235
235
150
235
125
65
35
255
255
255
255
255
255
255
255
255
235
150
235
235
150
235
235
150
235
35
185
70
235
150
235
235
150
235
95
95
225
235
150
235
35
185
70
235
150
235
235
150
235
235
150
235
95
95
225
235
150
235
235
150
235
35
185
70
235
150
235
235
150
235
95
95
225
235
150
235
235
150
235
235
150
235
235
150
235
35
185
70
235
150
235
235
150
235
235
150
235
235
150
235
235
150
235
95
95
225
235
150
235
235
150
235
235
150
235
255
255
255
255
255
255
255
255
255
255
255
255
255
255
255
255
255
255
255
255
255
255
255
255
255
255
255
255
255
255
125
65
35
125
65
35
0
0
0
125
65
35
255
255
255
255
255
255
255
255
255
255
255
255
255
255
255
255
255
255
255
255
255
255
255
255
255
255
255
255
255
255
255
255
255
255
255
255
255
255
255
255
255
255
255
255
255
255
255
255
255
255
255
255
255
255
255
255
255
255
255
255
255
255
255
255
255
255
255
255
255
255
255
255
255
255
255
255
255
255
255
255
255
255
255
255
255
255
255
255
255
255
255
255
255
255
255
255
255
255
255
255
255
255
255
255
255
255
255
255
255
255
255
255
255
255
255
255
255
255
255
255
255
255
255
255
255
255
255
255
255
255
255
255
255
255
255
255
255
255
255
255
255
255
255
255
255
255
255
255
255
255
